<svg width="19" height="19" viewBox="0 0 19 19" fill="none" xmlns="http://www.w3.org/2000/svg">
<path d="M6.5 3.25081C6.50016 2.62532 6.31982 2.01307 5.98062 1.48754C5.64142 0.962016 5.15777 0.545533 4.58773 0.288078C4.01768 0.0306219 3.38545 -0.0568682 2.76691 0.0361069C2.14837 0.129082 1.5698 0.398572 1.10063 0.812236C0.631466 1.2259 0.291634 1.76616 0.121922 2.36819C-0.0477906 2.97021 -0.0401735 3.60842 0.143859 4.20622C0.327891 4.80403 0.680521 5.33602 1.15943 5.73837C1.63833 6.14072 2.22317 6.39633 2.84375 6.47451V12.2146C2.02352 12.3179 1.27349 12.73 0.746359 13.3669C0.219226 14.0037 -0.0453882 14.8175 0.00638356 15.6426C0.0581553 16.4677 0.422421 17.2421 1.02503 17.8081C1.62763 18.3741 2.42328 18.6891 3.25 18.6891C4.07673 18.6891 4.87237 18.3741 5.47498 17.8081C6.07759 17.2421 6.44185 16.4677 6.49363 15.6426C6.5454 14.8175 6.28078 14.0037 5.75365 13.3669C5.22652 12.73 4.47649 12.3179 3.65625 12.2146V6.47451C4.44114 6.37473 5.16279 5.9924 5.6862 5.39906C6.20961 4.80572 6.49892 4.04201 6.5 3.25081ZM0.812505 3.25081C0.812505 2.76872 0.955462 2.29745 1.2233 1.8966C1.49113 1.49576 1.87182 1.18334 2.31721 0.998851C2.76261 0.814362 3.25271 0.766091 3.72554 0.860143C4.19837 0.954194 4.63269 1.18634 4.97358 1.52723C5.31447 1.86812 5.54662 2.30245 5.64067 2.77527C5.73472 3.2481 5.68645 3.7382 5.50196 4.1836C5.31747 4.62899 5.00505 5.00968 4.60421 5.27751C4.20336 5.54535 3.7321 5.68831 3.25 5.68831C2.60376 5.68758 1.9842 5.43053 1.52724 4.97357C1.07028 4.51661 0.813235 3.89705 0.812505 3.25081ZM5.6875 15.4383C5.6875 15.9204 5.54455 16.3917 5.27671 16.7925C5.00888 17.1934 4.62819 17.5058 4.1828 17.6903C3.7374 17.8748 3.2473 17.923 2.77447 17.829C2.30164 17.7349 1.86732 17.5028 1.52643 17.1619C1.18554 16.821 0.953392 16.3867 0.859341 15.9138C0.765289 15.441 0.81356 14.9509 0.998048 14.5055C1.18254 14.0601 1.49496 13.6794 1.8958 13.4116C2.29665 13.1438 2.76791 13.0008 3.25 13.0008C3.89625 13.0015 4.51581 13.2586 4.97277 13.7155C5.42973 14.1725 5.68677 14.7921 5.6875 15.4383ZM15.8441 12.2146L15.8439 8.51996C15.8457 7.82618 15.7099 7.13891 15.4444 6.49794C15.1789 5.85697 14.7889 5.27501 14.297 4.78575L11.137 1.62581H14.2188C14.3265 1.62581 14.4298 1.58301 14.506 1.50682C14.5822 1.43063 14.625 1.3273 14.625 1.21956C14.625 1.11181 14.5822 1.00848 14.506 0.932295C14.4298 0.856108 14.3265 0.813307 14.2188 0.813307H10.1563C10.1551 0.813307 10.154 0.813648 10.1528 0.81366C10.1272 0.81383 10.1017 0.8164 10.0767 0.821334C10.0649 0.823684 10.0539 0.82811 10.0425 0.831469C10.0284 0.835024 10.0144 0.839343 10.0008 0.844406C9.98802 0.850286 9.97557 0.856837 9.96349 0.864032C9.95258 0.869946 9.94128 0.874768 9.93086 0.881755C9.90886 0.896423 9.88833 0.913191 9.86957 0.931825L9.86902 0.932272C9.85015 0.951211 9.83319 0.971979 9.81839 0.994249C9.8117 1.00427 9.80708 1.01513 9.80138 1.02558C9.78553 1.05001 9.77428 1.07713 9.7682 1.10561C9.76483 1.1171 9.76042 1.12809 9.75804 1.13998C9.75274 1.16618 9.75005 1.19283 9.75 1.21956V5.28206C9.75 5.3898 9.79281 5.49313 9.86899 5.56932C9.94518 5.64551 10.0485 5.68831 10.1563 5.68831C10.264 5.68831 10.3673 5.64551 10.4435 5.56932C10.5197 5.49313 10.5625 5.3898 10.5625 5.28206V2.2003L13.7225 5.36026C14.1388 5.77426 14.4687 6.26669 14.6934 6.80905C14.9181 7.35142 15.0329 7.93295 15.0314 8.52001L15.0316 12.2146C14.2113 12.318 13.4613 12.73 12.9342 13.3669C12.4071 14.0037 12.1425 14.8175 12.1942 15.6426C12.246 16.4677 12.6103 17.2421 13.2129 17.8081C13.8155 18.374 14.6111 18.6891 15.4379 18.6891C16.2646 18.6891 17.0602 18.374 17.6628 17.808C18.2654 17.242 18.6297 16.4677 18.6814 15.6426C18.7332 14.8175 18.4686 14.0037 17.9414 13.3668C17.4143 12.73 16.6643 12.3179 15.8441 12.2146ZM15.4378 17.8758C14.9557 17.8758 14.4844 17.7329 14.0836 17.465C13.6828 17.1972 13.3703 16.8165 13.1858 16.3711C13.0014 15.9257 12.9531 15.4356 13.0471 14.9628C13.1412 14.4899 13.3733 14.0556 13.7142 13.7147C14.0551 13.3738 14.4894 13.1417 14.9623 13.0476C15.4351 12.9536 15.9252 13.0019 16.3706 13.1864C16.816 13.3708 17.1967 13.6833 17.4645 14.0841C17.7323 14.485 17.8753 14.9562 17.8753 15.4383C17.8746 16.0845 17.6175 16.7041 17.1606 17.1611C16.7036 17.618 16.084 17.8751 15.4378 17.8758Z" fill="black"/>
</svg>
